<svg width="400" height="400" viewBox="0 0 400 400" fill="none" xmlns="http://www.w3.org/2000/svg">
  <rect width="400" height="400" fill="#F3F4F6"/>
  <path d="M200 150C183.431 150 170 163.431 170 180C170 196.569 183.431 210 200 210C216.569 210 230 196.569 230 180C230 163.431 216.569 150 200 150ZM200 200C189.346 200 180 190.654 180 180C180 169.346 189.346 160 200 160C210.654 160 220 169.346 220 180C220 190.654 210.654 200 200 200Z" fill="#9CA3AF"/>
  <path d="M240 170H280V230H120V190L160 150L190 180L240 130V170Z" fill="#9CA3AF"/>
  <rect x="120" y="150" width="160" height="100" stroke="#9CA3AF" stroke-width="2"/>
</svg> 